<svg width="49" height="40" viewBox="0 0 49 40" fill="none" xmlns="http://www.w3.org/2000/svg">
<path d="M20.6901 0.802685C17.3527 2.3658 15.8318 4.8161 15.8318 8.70278C15.8318 17.5745 27.872 20.5318 31.8855 12.6739C32.8149 10.8151 33.0261 7.13966 32.2657 5.19632C31.2095 2.32356 27.6186 1.90735e-06 24.2811 1.90735e-06C23.2249 1.90735e-06 21.6196 0.38022 20.6901 0.802685Z" fill="white"/>
<path d="M6.24241 5.49217C2.56696 7.73123 2.18674 12.6741 5.48197 15.5891C8.01676 17.7859 11.9457 17.7436 14.058 15.5046L14.9874 14.4907L14.1003 12.4628C13.4243 10.942 13.2553 9.84355 13.3821 7.98471C13.551 5.74564 13.4666 5.53441 12.5794 5.11195C10.974 4.35151 7.76328 4.56274 6.24241 5.49217Z" fill="white"/>
<path d="M35.8575 5.11188C35.0971 5.4921 35.0126 5.83007 35.1816 7.98464C35.3083 9.84348 35.1393 10.9419 34.4634 12.4628C33.6185 14.4061 33.5762 14.5328 34.2944 15.3355C37.1249 18.504 42.7014 17.5746 44.6025 13.6879C46.7571 9.16754 43.8843 4.60492 38.857 4.68941C37.7164 4.68941 36.3645 4.90065 35.8575 5.11188Z" fill="white"/>
<path d="M5.48125 18.969C3.62241 19.7717 1.63682 21.8418 0.960878 23.6161C0.115948 25.8975 -0.26427 29.1082 0.200441 30.0376C0.918631 31.3473 4.12936 32.5724 7.08662 32.6569L9.66365 32.7414L10.2129 29.0659C10.7621 25.2215 12.0717 21.9685 13.6771 20.5322C14.86 19.4337 14.8177 19.1803 13.2546 18.6311C11.1845 17.9129 7.38234 18.0819 5.48125 18.969Z" fill="white"/>
<path d="M18.029 19.2641C14.1001 21.2074 12.7482 23.7422 11.7343 31.0509L11.0161 36.4162L11.9878 37.2189C14.0579 38.9087 17.3108 39.5002 24.2815 39.5002C31.2522 39.5002 34.5052 38.9087 36.5752 37.2189L37.5469 36.4162L36.8287 31.0086C35.9838 25.0096 34.8431 22.2214 32.5196 20.447C30.1538 18.6727 28.3372 18.1657 24.1548 18.1657C20.7751 18.1657 19.9301 18.3347 18.029 19.2641Z" fill="white"/>
<path d="M35.1813 18.6733C33.7449 19.1803 33.7027 19.476 34.8856 20.5322C36.4909 21.9685 37.8006 25.2215 38.3498 29.0659L38.899 32.7414L41.5183 32.6569C44.4333 32.5724 47.644 31.305 48.4045 29.9531C48.8269 29.1082 48.4045 25.813 47.6018 23.6161C46.9258 21.8418 44.9402 19.7717 43.0814 18.969C41.2226 18.1241 37.0824 17.9551 35.1813 18.6733Z" fill="white"/>
</svg>
