<svg width="263" height="47" viewBox="0 0 263 47" fill="none" xmlns="http://www.w3.org/2000/svg">
<path d="M5.9986e-05 43.4229L11.9659 46.0341L14.5771 34.0682L2.61125 31.4571L5.9986e-05 43.4229ZM261.608 40.2111C262.418 40.0344 262.931 39.2351 262.754 38.4258L259.876 25.2361C259.699 24.4268 258.9 23.9138 258.091 24.0904C257.281 24.2671 256.768 25.0664 256.945 25.8757L259.503 37.5998L247.779 40.1583C246.97 40.3349 246.457 41.1342 246.633 41.9436C246.81 42.753 247.609 43.2659 248.419 43.0893L261.608 40.2111ZM7.28858 38.7456L8.09872 40.008C84.9896 -9.33599 183.588 -9.33599 260.478 40.008L261.289 38.7456L262.099 37.4831C184.221 -12.4944 84.3567 -12.4944 6.47844 37.4832L7.28858 38.7456Z" fill="url(#paint0_linear_2526_37)"/>
<defs>
<linearGradient id="paint0_linear_2526_37" x1="7.28857" y1="39.2451" x2="261.289" y2="39.2451" gradientUnits="userSpaceOnUse">
<stop stop-color="#AA2493"/>
<stop offset="0.253328" stop-color="#7F238C"/>
<stop offset="1" stop-color="#022179"/>
</linearGradient>
</defs>
</svg>
